<?xml version="1.0" standalone="no"?>
<!DOCTYPE svg PUBLIC "-//W3C//DTD SVG 20010904//EN"
 "http://www.w3.org/TR/2001/REC-SVG-20010904/DTD/svg10.dtd">
<svg version="1.0" xmlns="http://www.w3.org/2000/svg"
 width="512.000000pt" height="512.000000pt" viewBox="0 0 512.000000 512.000000"
 preserveAspectRatio="xMidYMid meet">

<g transform="translate(0.000000,512.000000) scale(0.100000,-0.100000)"
fill="#000000" stroke="none">
<path d="M3449 4870 c-9 -5 -311 -262 -670 -570 l-654 -560 -117 0 c-64 0
-124 -3 -133 -6 -24 -9 -46 -60 -39 -89 13 -53 -64 -50 1423 -55 l1386 -5 5
-80 c11 -163 109 -270 268 -291 l52 -7 0 -147 0 -148 -52 -7 c-111 -15 -188
-69 -238 -167 -57 -114 -34 -250 57 -341 52 -52 130 -87 193 -87 l40 0 0 -154
0 -153 -58 -6 c-99 -8 -186 -68 -234 -160 -18 -35 -23 -64 -28 -172 l-5 -130
-275 -3 c-265 -2 -275 -3 -297 -24 -33 -30 -31 -80 3 -107 26 -20 38 -21 348
-21 237 1 325 4 337 13 33 26 39 55 39 204 0 130 2 152 20 181 32 53 74 72
158 72 74 0 107 10 129 39 9 12 12 86 13 267 0 311 7 295 -132 304 -66 4 -104
12 -122 24 -88 57 -87 193 2 248 28 17 56 23 124 26 133 7 128 -5 128 302 0
235 -1 249 -21 274 -19 24 -26 26 -98 26 -126 0 -201 55 -201 148 0 27 10 42
65 93 98 92 99 88 -90 308 -86 100 -166 188 -180 197 -31 20 -58 12 -117 -38
-62 -51 -96 -68 -136 -68 -42 0 -83 21 -115 59 -60 71 -45 142 48 229 99 92
100 88 -98 318 -150 175 -165 189 -199 192 -28 2 -43 -3 -70 -26 -102 -89
-169 -105 -241 -57 -20 14 -37 29 -37 33 0 4 -26 35 -58 70 -59 63 -85 74
-123 52z m195 -313 c99 -34 211 -18 295 43 l28 20 83 -98 c46 -53 89 -104 97
-113 12 -14 9 -21 -21 -54 -195 -213 -18 -544 267 -501 25 4 70 22 102 41 32
19 58 35 60 35 1 0 39 -43 84 -95 l82 -95 -1183 0 -1183 0 35 29 c19 16 271
231 559 478 l523 449 62 -61 c43 -43 76 -67 110 -78z"/>
<path d="M359 3727 c-33 -26 -39 -55 -39 -204 0 -130 -2 -152 -20 -181 -32
-53 -74 -72 -158 -72 -74 0 -107 -10 -129 -39 -9 -12 -12 -86 -13 -267 0 -311
-7 -295 132 -304 66 -4 104 -12 122 -24 88 -57 87 -193 -2 -248 -28 -17 -56
-23 -124 -26 -133 -7 -128 5 -128 -302 0 -235 1 -249 21 -274 19 -24 26 -26
98 -26 130 0 201 -55 201 -155 0 -37 -5 -44 -65 -93 -100 -80 -100 -81 90
-301 86 -100 166 -188 180 -197 31 -20 58 -12 117 38 62 51 96 68 136 68 42 0
83 -21 115 -59 60 -71 45 -142 -48 -229 -99 -92 -100 -88 98 -318 150 -175
165 -189 199 -192 28 -2 43 3 70 26 70 62 109 82 157 82 58 0 90 -22 166 -112
59 -70 81 -84 118 -74 12 3 319 260 682 570 l660 566 241 0 c229 0 243 1 268
21 34 27 36 77 3 107 l-23 22 -1505 2 -1504 3 -5 80 c-11 163 -109 270 -267
291 l-53 7 0 147 0 148 53 7 c110 15 187 69 237 167 57 114 34 250 -57 341
-52 52 -130 87 -193 87 l-40 0 0 154 0 153 58 6 c99 8 186 68 234 160 18 35
23 64 28 172 l5 130 447 5 c406 5 449 7 468 22 30 26 27 81 -6 107 -26 21 -36
21 -518 21 -370 -1 -495 -4 -507 -13z m2371 -2376 c-19 -16 -271 -231 -559
-478 l-523 -449 -62 61 c-72 72 -126 95 -225 95 -68 0 -123 -19 -180 -60 l-28
-20 -83 98 c-46 53 -89 104 -97 113 -12 14 -9 21 21 54 57 62 79 119 80 205 1
63 -4 84 -27 132 -78 159 -270 214 -422 123 -32 -19 -58 -35 -60 -35 -1 0 -39
43 -84 95 l-82 95 1183 0 1183 0 -35 -29z"/>
<path d="M790 3360 c-20 -20 -20 -33 -20 -800 0 -767 0 -780 20 -800 20 -20
33 -20 1770 -20 1737 0 1750 0 1770 20 20 20 20 33 20 800 0 767 0 780 -20
800 -20 20 -33 20 -1128 20 -1238 0 -1152 5 -1152 -69 0 -26 7 -44 21 -57 20
-18 55 -19 1075 -22 l1054 -2 0 -670 0 -670 -1640 0 -1640 0 0 670 0 669 325
3 c319 3 325 3 346 25 27 27 29 75 4 103 -18 19 -30 20 -402 20 -370 0 -384
-1 -403 -20z"/>
<path d="M1122 2878 c-16 -16 -16 -70 0 -86 7 -7 43 -12 90 -12 l78 0 0 -288
c0 -267 1 -290 18 -305 22 -20 71 -22 95 -4 15 11 17 44 19 302 l3 290 84 5
c80 5 85 6 93 31 5 16 5 37 -1 52 l-11 27 -228 0 c-164 0 -231 -3 -240 -12z"/>
<path d="M1698 2879 c-17 -9 -18 -37 -18 -349 0 -325 1 -340 19 -350 34 -18
78 -12 95 12 14 19 16 69 16 344 0 298 -1 322 -18 337 -21 19 -68 22 -94 6z"/>
<path d="M2050 2877 c-46 -15 -106 -77 -119 -124 -6 -21 -11 -126 -11 -234 0
-196 0 -197 28 -250 39 -75 96 -104 203 -103 66 0 83 5 130 31 62 35 99 93 99
154 0 47 -21 69 -65 69 -42 0 -61 -18 -69 -69 -8 -50 -36 -71 -96 -71 -91 1
-100 24 -100 252 0 205 4 218 65 238 19 6 48 9 65 5 33 -7 70 -48 70 -76 0
-28 36 -59 69 -59 85 0 82 127 -4 197 -60 50 -178 67 -265 40z"/>
<path d="M2488 2879 c-17 -9 -18 -37 -18 -349 0 -325 1 -340 19 -350 30 -16
76 -12 94 8 13 15 17 39 17 116 0 83 3 102 21 127 11 16 24 29 28 29 5 0 50
-63 101 -141 52 -77 102 -144 111 -150 10 -5 26 -6 36 -2 25 8 63 44 63 58 0
7 -49 88 -110 180 -60 93 -110 171 -110 174 0 4 41 57 91 119 97 122 104 140
57 175 -45 34 -64 19 -180 -140 l-108 -148 0 137 c0 111 -3 140 -16 152 -17
18 -70 21 -96 5z"/>
<path d="M3032 2878 c-17 -17 -17 -679 0 -696 17 -17 399 -17 416 0 7 7 12 26
12 43 0 52 -10 55 -172 55 l-148 0 0 100 0 100 83 0 c90 0 107 8 107 50 0 42
-17 50 -107 50 l-83 0 0 100 0 100 148 0 c162 0 172 3 172 55 0 17 -5 36 -12
43 -17 17 -399 17 -416 0z"/>
<path d="M3499 2863 c-7 -17 -7 -38 -2 -53 8 -23 14 -25 93 -30 l85 -5 3 -290
c2 -321 1 -315 67 -315 64 0 65 5 65 323 l0 287 78 0 c87 0 102 8 102 55 0 17
-5 36 -12 43 -9 9 -76 12 -240 12 l-228 0 -11 -27z"/>
</g>
</svg>
