<svg width="86" height="63" xmlns="http://www.w3.org/2000/svg"><g fill="#FFF" fill-rule="evenodd"><path d="M79.21.097c-3.549 0-6.435 2.842-6.435 6.335s2.886 6.335 6.435 6.335c3.548 0 6.434-2.842 6.434-6.335S82.758.097 79.21.097M49.268 1.79L69.01 43.478l5.073-12.555L60.266 1.79zM27.27 1.79l19.743 41.688 5.073-12.555L38.269 1.79zM9.658 33.911V1.79H.02V42.9h30.558l-4.257-8.989zM.02 54.651H2.88v8.17h1.817v-8.17h2.858v-1.724H.02zM17.09 52.927v4h-4.389v-4h-1.79v9.893h1.79v-4.182h4.39v4.182h1.79v-9.893zM25.034 58.65h4.38v-1.684h-4.38v-2.354h4.725v-1.685h-6.515v9.893h6.204l.669-1.654v-.03h-5.083zM66.586 58.65h4.38v-1.684h-4.38v-2.354h4.724v-1.685h-6.515v9.893H71l.669-1.654v-.03h-5.083zM43.027 54.651h2.858v8.17h1.818v-8.17h2.858v-1.724h-7.534zM60.803 55.991c0-1.525-1.02-3.064-3.297-3.064h-3.589v9.893h1.792v-3.778h1.087l2.382 3.778h2.163l-2.645-3.978c1.55-.501 2.107-1.787 2.107-2.85m-3.535 1.391h-1.56v-2.771h1.798c1.073 0 1.453.736 1.453 1.366 0 .33-.122 1.405-1.691 1.405M36.546 52.927L32.55 62.82h1.931l.861-2.277h3.554l.853 2.277h1.93l-3.956-9.893h-1.176zm-.597 6.01l1.178-3.114 1.166 3.114H35.95zM79.751 57.575l-1.906-.911c-.62-.296-1.047-.636-1.047-1.17 0-.63.53-1.045 1.32-1.045.81 0 1.451.365 2.021 1.064l1.121-1.23c-.82-1.006-1.86-1.518-3.151-1.518-1.851 0-3.202 1.172-3.202 2.807 0 1.233.666 2.002 1.784 2.536l1.747.835c.777.371 1.066.677 1.066 1.2 0 .61-.485 1.153-1.496 1.153-.92 0-1.831-.53-2.4-1.468l-1.321 1.096c.85 1.389 2.16 2.056 3.721 2.056 2.012 0 3.412-1.248 3.412-2.952 0-1.197-.625-1.955-1.669-2.453"/></g></svg>