<svg width="159" height="148" viewBox="0 0 159 148" fill="none" xmlns="http://www.w3.org/2000/svg">
<path d="M140.059 25.0991C152.574 38.0973 159.305 56.5464 158.989 74.6811C158.674 92.8157 151.417 110.636 138.902 124.263C126.281 137.89 108.403 147.324 89.7875 147.953C71.2775 148.687 51.9262 140.72 37.4128 127.093C22.8993 113.466 13.2236 94.1784 10.6996 72.4797C8.07031 50.6763 12.6978 26.357 27.2113 13.2539C41.7247 0.150851 66.1242 -1.73599 87.5789 1.1991C109.034 4.23901 127.544 11.996 140.059 25.0991Z" fill="#F0F0F0"/>
<path d="M91.6156 20.2758C91.3765 20.4086 83.3547 27.2351 73.8187 35.4164L56.4469 50.2914H53.3391C51.6391 50.2914 50.0453 50.3711 49.8062 50.4508C49.1687 50.6898 48.5844 52.0445 48.7703 52.8148C49.1156 54.2226 47.0703 54.1429 86.5687 54.2758L123.384 54.4086L123.517 56.5336C123.809 60.8633 126.412 63.7054 130.636 64.2633L132.017 64.4492V68.3539V72.2851L130.636 72.4711C127.687 72.8695 125.642 74.3039 124.314 76.907C122.8 79.9351 123.411 83.5476 125.828 85.9648C127.209 87.3461 129.281 88.2758 130.955 88.2758H132.017V92.3664V96.4304L130.477 96.5898C127.847 96.8023 125.536 98.3961 124.261 100.84C123.783 101.77 123.65 102.54 123.517 105.409L123.384 108.862L116.08 108.941C109.041 108.995 108.775 109.021 108.191 109.579C107.314 110.376 107.367 111.704 108.27 112.421C108.961 112.952 109.28 112.979 117.514 112.979C123.809 112.952 126.147 112.873 126.466 112.634C127.342 111.943 127.502 111.173 127.502 107.215C127.502 103.762 127.555 103.177 128.033 102.407C128.883 100.999 129.998 100.495 132.23 100.495C134.195 100.495 135.072 100.229 135.656 99.4586C135.895 99.1398 135.975 97.1742 136.002 92.3664C136.002 84.1054 136.187 84.5304 132.495 84.2914C130.742 84.1851 129.733 83.9726 129.255 83.6539C126.917 82.1398 126.944 78.5273 129.308 77.0664C130.052 76.6148 130.795 76.4554 132.602 76.3758C136.134 76.1898 136.002 76.5086 136.002 68.3539C136.002 62.1117 135.975 61.7398 135.444 61.0758C134.939 60.4383 134.753 60.3851 132.841 60.3851C129.494 60.3851 127.502 58.9242 127.502 56.4539C127.502 55.7367 127.767 55.3383 129.228 53.9836C131.831 51.5398 131.858 51.6461 126.837 45.8023C124.553 43.1461 122.428 40.8086 122.056 40.5695C121.233 40.0383 120.516 40.2508 118.948 41.5789C117.302 42.9336 116.398 43.3851 115.336 43.3851C114.22 43.3851 113.131 42.8273 112.281 41.8179C110.687 39.932 111.086 38.0461 113.556 35.7351C116.186 33.2914 116.212 33.3976 110.953 27.2883C106.969 22.6398 106.57 22.2679 105.667 22.1883C104.923 22.1351 104.525 22.2679 103.808 22.8789C101.098 25.2429 99.3187 25.6679 97.4062 24.3929C96.875 24.0211 96.4234 23.6226 96.4234 23.5164C96.4234 23.4101 95.7328 22.5867 94.8828 21.657C93.3156 19.9836 92.625 19.6914 91.6156 20.2758ZM96.7953 28.5898C99.425 29.4929 102.4 29.0679 104.631 27.4476L105.375 26.9164L107.58 29.5195C108.802 30.9273 109.944 32.282 110.156 32.5211C110.475 32.8929 110.395 33.0789 109.598 33.9554C104.419 39.6133 109.12 48.4054 116.691 47.2633C117.355 47.157 118.55 46.6789 119.4 46.1742C120.25 45.6695 120.941 45.2445 120.994 45.2445C121.02 45.2445 122.03 46.3867 123.225 47.7679L125.403 50.2914H93.9797H62.5562L63.4859 49.5211C63.9906 49.0961 70.6844 43.3851 78.3344 36.8242L92.2265 24.8976L93.8734 26.5179C95.0156 27.6601 95.8922 28.2976 96.7953 28.5898Z" fill="black"/>
<path d="M9.53749 50.6367C8.66093 51.3273 8.50156 52.0976 8.50156 56.0554C8.50156 59.5086 8.44843 60.0929 7.97031 60.8633C7.12031 62.2711 6.00468 62.7758 3.77343 62.7758C1.80781 62.7758 0.931244 63.0414 0.346869 63.8117C0.107807 64.1304 0.0281193 66.0961 0.00155683 70.9039C0.00155683 79.1648 -0.184381 78.7398 3.50781 78.9789C5.26093 79.0851 6.27031 79.2976 6.74843 79.6164C9.08593 81.1304 9.05937 84.7429 6.69531 86.2039C5.95156 86.6554 5.20781 86.8148 3.40156 86.8945C-0.131256 87.0804 0.00155683 86.7617 0.00155683 94.9164C0.00155683 101.159 0.0281193 101.53 0.559369 102.195C1.06406 102.832 1.24999 102.885 3.16249 102.885C6.61562 102.885 8.50156 104.346 8.50156 107.002C8.50156 107.985 8.36874 108.171 6.77499 109.473C4.11874 111.598 4.11874 111.624 9.16562 117.468C11.45 120.124 13.575 122.462 13.9469 122.701C14.7703 123.232 15.4875 123.02 17.0547 121.691C18.7016 120.337 19.6047 119.885 20.6672 119.885C21.7828 119.885 22.8719 120.443 23.7219 121.452C25.3156 123.338 24.9172 125.224 22.4469 127.535C19.8172 129.979 19.7906 129.873 25.05 135.982C29.0344 140.63 29.4328 141.002 30.3359 141.082C31.0797 141.135 31.4781 141.002 32.1953 140.391C34.0547 138.745 35.0906 138.213 36.3656 138.213C37.9062 138.213 38.7562 138.798 40.775 141.188C42.3422 143.048 42.9266 143.42 43.9094 143.154C44.2281 143.074 52.3828 136.248 62.025 128.013L79.5562 112.979H85.9578C92.0406 112.979 92.4125 112.952 93.0766 112.421C93.9797 111.704 94.0328 110.376 93.1562 109.579L92.5453 108.995L52.5687 108.941L12.6187 108.862L12.4859 106.737C12.1937 102.407 9.59062 99.5648 5.39374 99.007L3.98593 98.8211V94.9164V90.9851L5.39374 90.7992C8.31562 90.4008 10.3609 88.9664 11.6891 86.3633C13.2031 83.3351 12.5922 79.7226 10.175 77.3054C8.79374 75.9242 6.72187 74.9945 5.04843 74.9945H3.98593V70.9039V66.8398L5.52656 66.6804C8.15624 66.4679 10.4672 64.8742 11.7422 62.4304C12.2203 61.5008 12.3531 60.7304 12.4859 57.8617L12.6187 54.4086L24.4922 54.2758C35.2766 54.1429 36.4187 54.0898 36.9234 53.6914C37.7203 53.0008 37.6406 51.5398 36.7641 50.8492C36.0734 50.2914 35.8078 50.2914 23.0047 50.2914C13.1766 50.3179 9.85624 50.3976 9.53749 50.6367ZM72.5172 113.749C72.0125 114.174 65.3187 119.885 57.6687 126.446L43.7766 138.373L42.1297 136.752C40.2172 134.84 38.7828 134.229 36.1531 134.229C34.3469 134.229 32.8859 134.734 31.3719 135.823L30.6281 136.354L28.4234 133.751C27.2016 132.343 26.0594 130.988 25.8469 130.749C25.5281 130.377 25.6078 130.191 26.4047 129.315C27.9187 127.668 28.5031 126.154 28.5297 123.87C28.5562 122.196 28.4234 121.638 27.8125 120.363C25.7406 116.14 20.6406 114.679 16.6031 117.096C15.7531 117.601 15.0625 118.026 15.0094 118.026C14.9828 118.026 13.9734 116.884 12.7781 115.502L10.6 112.979H42.0234H73.4469L72.5172 113.749Z" fill="black"/>
<path d="M20.9859 60.3851C20.4547 60.9164 20.4547 61.2617 20.4547 81.6351C20.4547 102.009 20.4547 102.354 20.9859 102.885C21.5172 103.416 21.8625 103.416 68.0016 103.416C114.141 103.416 114.486 103.416 115.017 102.885C115.548 102.354 115.548 102.009 115.548 81.6351C115.548 61.2617 115.548 60.9164 115.017 60.3851C114.486 59.8539 114.141 59.8539 85.0547 59.8539C52.1703 59.8539 54.4547 59.7211 54.4547 61.6867C54.4547 62.3773 54.6406 62.8554 55.0125 63.2008C55.5437 63.6789 56.4734 63.7054 83.5672 63.7851L111.564 63.8383V81.6351V99.432H68.0016H24.4391V81.6351V63.8648L33.0719 63.7851C41.5453 63.7054 41.7047 63.7054 42.2625 63.1211C42.9797 62.4039 43.0328 61.1289 42.3687 60.3851C41.8906 59.8804 41.5719 59.8539 31.6906 59.8539C21.8625 59.8539 21.4906 59.8804 20.9859 60.3851Z" fill="black"/>
<path d="M29.8047 73.1883C29.3797 73.6133 29.3797 75.0476 29.8047 75.4726C29.9906 75.6586 30.9469 75.7914 32.1953 75.7914H34.2672V83.4414C34.2672 90.5336 34.2937 91.1445 34.7453 91.5429C35.3297 92.0742 36.6312 92.1273 37.2687 91.6492C37.6672 91.357 37.7203 90.4804 37.7734 83.6273L37.8531 75.9242L40.0844 75.7914C42.2094 75.6586 42.3422 75.632 42.5547 74.9679C42.6875 74.5429 42.6875 73.9851 42.5281 73.5867L42.2359 72.8695H36.1797C31.8234 72.8695 30.0437 72.9492 29.8047 73.1883Z" fill="black"/>
<path d="M45.1047 73.1617C44.6531 73.4008 44.6266 74.1445 44.6266 82.432C44.6266 91.0648 44.6531 91.4633 45.1312 91.7289C46.0344 92.207 47.2031 92.0476 47.6547 91.4101C48.0266 90.9054 48.0797 89.5773 48.0797 82.2726C48.0797 74.357 48.0531 73.7195 47.6016 73.3211C47.0437 72.8164 45.7953 72.7367 45.1047 73.1617Z" fill="black"/>
<path d="M54.4547 73.2148C53.2328 73.6133 51.6391 75.2601 51.2937 76.5086C51.1344 77.0664 51.0016 79.8554 51.0016 82.7242C51.0016 87.9304 51.0016 87.957 51.7453 89.3648C52.7812 91.357 54.2953 92.1273 57.1375 92.1008C58.8906 92.1008 59.3422 91.9679 60.5906 91.2773C62.2375 90.3476 63.2203 88.807 63.2203 87.1867C63.2203 85.9383 62.6625 85.3539 61.4937 85.3539C60.3781 85.3539 59.8734 85.832 59.6609 87.1867C59.4484 88.5148 58.7047 89.0726 57.1109 89.0726C54.6937 89.0461 54.4547 88.4351 54.4547 82.3789C54.4547 76.9336 54.5609 76.5883 56.1812 76.057C56.6859 75.8976 57.4562 75.8179 57.9078 75.9242C58.7844 76.1101 59.7672 77.1992 59.7672 77.9429C59.7672 78.6867 60.7234 79.5101 61.6 79.5101C63.8578 79.5101 63.7781 76.1367 61.4937 74.2773C59.9 72.9492 56.7656 72.4976 54.4547 73.2148Z" fill="black"/>
<path d="M66.0891 73.1617C65.6375 73.4008 65.6109 74.1445 65.6109 82.432C65.6109 91.0648 65.6375 91.4633 66.1156 91.7289C66.9125 92.1539 68.1344 92.0476 68.6125 91.5164C68.9578 91.1179 69.0641 90.4804 69.0641 88.4351C69.0641 86.2304 69.1437 85.7258 69.6219 85.0617C69.9141 84.6367 70.2594 84.2914 70.3656 84.2914C70.4984 84.2914 71.6937 85.9648 73.0484 88.0367C74.4297 90.082 75.7578 91.8617 75.9969 92.0211C76.2625 92.1539 76.6875 92.1804 76.9531 92.0742C77.6172 91.8617 78.6266 90.9054 78.6266 90.5336C78.6266 90.3476 77.325 88.1961 75.7047 85.7523C74.1109 83.282 72.7828 81.2101 72.7828 81.1304C72.7828 81.0242 73.8719 79.6164 75.2 77.9695C77.7766 74.7289 77.9625 74.2508 76.7141 73.3211C75.5187 72.4179 75.0141 72.8164 71.9328 77.0398L69.0641 80.9711V77.332C69.0641 74.3836 68.9844 73.6133 68.6391 73.2945C68.1875 72.8164 66.7797 72.7367 66.0891 73.1617Z" fill="black"/>
<path d="M80.5391 73.1883C80.0875 73.6398 80.0875 91.2242 80.5391 91.6758C80.9906 92.1273 91.1375 92.1273 91.5891 91.6758C91.775 91.4898 91.9078 90.9851 91.9078 90.5336C91.9078 89.1523 91.6422 89.0726 87.3391 89.0726H83.4078V86.4164V83.7601H85.6125C88.0031 83.7601 88.4547 83.5476 88.4547 82.432C88.4547 81.3164 88.0031 81.1039 85.6125 81.1039H83.4078V78.4476V75.7914H87.3391C91.6422 75.7914 91.9078 75.7117 91.9078 74.3304C91.9078 73.8789 91.775 73.3742 91.5891 73.1883C91.1375 72.7367 80.9906 72.7367 80.5391 73.1883Z" fill="black"/>
<path d="M92.9437 73.5867C92.7578 74.0383 92.7578 74.5961 92.8906 74.9945C93.1031 75.6054 93.2625 75.6586 95.3609 75.7914L97.6187 75.9242L97.6984 83.6273C97.7516 92.1539 97.725 91.9945 99.4781 91.9945C101.178 91.9945 101.205 91.8617 101.205 83.4148V75.7914H103.277C105.587 75.7914 105.986 75.5789 105.986 74.3304C105.986 73.8789 105.853 73.3742 105.667 73.1883C105.428 72.9492 103.648 72.8695 99.2922 72.8695H93.2359L92.9437 73.5867Z" fill="black"/>
</svg>
